<?xml version="1.0" encoding="UTF-8" standalone="no"?>
<!-- Created with Inkscape (http://www.inkscape.org/) -->

<svg
   xmlns:dc="http://purl.org/dc/elements/1.1/"
   xmlns:cc="http://creativecommons.org/ns#"
   xmlns:rdf="http://www.w3.org/1999/02/22-rdf-syntax-ns#"
   xmlns:svg="http://www.w3.org/2000/svg"
   xmlns="http://www.w3.org/2000/svg"
   xmlns:sodipodi="http://sodipodi.sourceforge.net/DTD/sodipodi-0.dtd"
   xmlns:inkscape="http://www.inkscape.org/namespaces/inkscape"
   width="1080"
   height="330"
   viewBox="0 0 1080 330"
   id="svg4168"
   version="1.1"
   inkscape:version="0.91 r13725"
   sodipodi:docname="boonux-logo.svg"
   inkscape:export-filename="/home/i/Pictures/boonux-logo.png"
   inkscape:export-xdpi="90"
   inkscape:export-ydpi="90">
  <defs
     id="defs4170" />
  <sodipodi:namedview
     id="base"
     pagecolor="#ffffff"
     bordercolor="#666666"
     borderopacity="1.0"
     inkscape:pageopacity="0.0"
     inkscape:pageshadow="2"
     inkscape:zoom="0.46235109"
     inkscape:cx="14.943528"
     inkscape:cy="128"
     inkscape:document-units="px"
     inkscape:current-layer="layer1"
     showgrid="false"
     units="px"
     inkscape:showpageshadow="false"
     showborder="false"
     inkscape:window-width="2560"
     inkscape:window-height="1350"
     inkscape:window-x="0"
     inkscape:window-y="45"
     inkscape:window-maximized="1" />
  <metadata
     id="metadata4173">
    <rdf:RDF>
      <cc:Work
         rdf:about="">
        <dc:format>image/svg+xml</dc:format>
        <dc:type
           rdf:resource="http://purl.org/dc/dcmitype/StillImage" />
        <dc:title></dc:title>
      </cc:Work>
    </rdf:RDF>
  </metadata>
  <g
     inkscape:label="Layer 1"
     inkscape:groupmode="layer"
     id="layer1"
     transform="translate(0,-722.36216)">
    <path
       style="display:inline;fill:#161616;fill-opacity:0.8"
       d="m 0,722.36216 1080,0 0,330.00004 -1080,0 z"
       id="rect3475"
       inkscape:connector-curvature="0" />
    <g
       style="font-style:normal;font-weight:normal;font-size:198.9866333px;line-height:125%;font-family:sans-serif;letter-spacing:0px;word-spacing:0px;fill:#ffffff;fill-opacity:0.8;stroke:none;stroke-width:1px;stroke-linecap:butt;stroke-linejoin:miter;stroke-opacity:1"
       id="text4278"
       transform="translate(-240,483.36216)">
      <path
         d="m 330,448.93691 0,-126.02487 q 0,-2.65316 1.98987,-4.64302 1.98986,-1.98987 4.64302,-1.98987 l 126.02487,0 q 2.65315,0 4.64302,1.98987 1.98986,1.98986 1.98986,4.64302 l 0,126.02487 q 0,2.65315 -1.98986,4.64302 -1.98987,1.98986 -4.64302,1.98986 l -21.22525,0 0,-69.64532 q 0,-17.57715 -12.10502,-29.68217 -12.10502,-12.10502 -29.68217,-12.10502 -17.57715,0 -29.68217,12.10502 -12.10502,12.10502 -12.10502,29.68217 0,17.57715 12.10502,29.68217 12.10502,12.10503 29.68217,12.10503 4.14556,0 8.62276,-0.82912 l 0,28.68724 -71.63519,0 q -2.65316,0 -4.64302,-1.98986 Q 330,451.59006 330,448.93691 Z m 57.20866,-50.57577 q -4.97467,-5.14049 -4.97467,-12.43667 0,-7.29617 4.97467,-12.27084 5.14049,-5.14049 12.43666,-5.14049 7.29618,0 12.27084,5.14049 5.14049,4.97467 5.14049,12.27084 0,7.29618 -5.14049,12.43667 -4.97466,4.97466 -12.27084,4.97466 -7.29617,0 -12.43666,-4.97466 z"
         style="font-style:normal;font-variant:normal;font-weight:normal;font-stretch:normal;font-family:'BoonTook Mon';-inkscape-font-specification:'BoonTook Mon';fill:#ffffff;fill-opacity:0.8"
         id="path4153"
         inkscape:connector-curvature="0" />
      <path
         d="m 536.44863,417.43069 0,-54.72133 q 0,-2.65315 1.82405,-4.64302 1.98986,-1.98986 4.80884,-1.98986 l 33.16444,0 q 2.81898,0 4.64302,1.98986 1.98987,1.98987 1.98987,4.64302 l 0,53.06311 q 0,11.60755 11.60755,11.60755 11.60755,0 11.60755,-11.60755 l 0,-53.06311 q 0,-2.65315 1.82405,-4.64302 1.98986,-1.98986 4.80884,-1.98986 l 33.16444,0 q 2.81898,0 4.64302,1.98986 1.98987,1.98987 1.98987,4.64302 l 0,54.72133 q 0,20.23031 -15.42147,30.84293 -15.42146,10.61262 -42.6163,10.61262 -27.19484,0 -42.6163,-10.61262 -15.42147,-10.61262 -15.42147,-30.84293 z"
         style="font-style:normal;font-variant:normal;font-weight:normal;font-stretch:normal;font-family:'BoonTook Mon';-inkscape-font-specification:'BoonTook Mon';fill:#ffffff;fill-opacity:0.8"
         id="path4155"
         inkscape:connector-curvature="0" />
      <path
         d="m 605.23891,470.49379 q 0,-1.98987 1.4924,-3.48226 1.4924,-1.4924 3.48227,-1.4924 l 26.53155,0 q 4.4772,0 7.29617,2.65315 2.65316,2.81898 2.65316,7.29618 l 0,21.55688 q 0,1.98987 -1.4924,3.48227 -1.4924,1.4924 -3.48227,1.4924 l -23.2151,0 q -1.98987,0 -3.48227,-1.4924 -1.4924,-1.4924 -1.4924,-3.48227 l 0,-11.60755 -3.31644,0 q -1.98987,0 -3.48227,-1.4924 -1.4924,-1.4924 -1.4924,-3.48227 l 0,-9.94933 z"
         style="font-style:normal;font-variant:normal;font-weight:normal;font-stretch:normal;font-family:'BoonTook Mon';-inkscape-font-specification:'BoonTook Mon';fill:#ffffff;fill-opacity:0.8"
         id="path4157"
         inkscape:connector-curvature="0" />
      <path
         d="m 663.27668,371.82959 q 0,-2.9848 3.31644,-4.97467 0.99494,-0.49747 2.81898,-1.4924 1.98987,-0.99493 7.95947,-3.31644 6.13542,-2.48734 12.27084,-4.31138 6.30124,-1.98987 15.42146,-3.48227 9.12022,-1.4924 17.9088,-1.4924 27.19484,0 42.6163,10.61262 15.42147,10.61262 15.42147,30.84293 l 0,24.87333 q 0,9.94933 8.29111,9.94933 8.29111,0 8.29111,-9.94933 l 0,-56.37955 q 0,-2.65315 1.98986,-4.64302 1.98987,-1.98986 4.64302,-1.98986 l 31.50622,0 q 2.65316,0 4.64302,1.98986 1.98987,1.98987 1.98987,4.64302 l 0,58.03777 q 0,17.07969 -12.93413,27.69231 -12.93413,10.4468 -40.12897,10.4468 -27.19484,0 -40.12897,-10.4468 -12.93413,-10.61262 -12.93413,-27.69231 l 0,-26.53155 q 0,-6.13542 -3.15063,-8.78857 -2.9848,-2.81898 -10.11515,-2.81898 -4.80884,0 -10.28098,0.66329 5.30631,4.64302 5.30631,12.60248 l 0,34.82266 4.97467,0 q 1.98987,0 3.48227,1.4924 1.4924,1.4924 1.4924,3.48227 l 0,14.924 q 0,1.98986 -1.4924,3.48226 -1.4924,1.4924 -3.48227,1.4924 l -29.848,0 q -9.28604,0 -13.76324,-4.14555 -4.4772,-4.31138 -4.4772,-10.77844 l 0,-46.43022 q 0,-4.4772 -1.98986,-4.4772 -1.65823,0.33165 -2.15569,0.33165 -2.15569,0 -3.31645,-3.31645 l -3.31644,-10.77844 q -0.82911,-2.81898 -0.82911,-4.14555 z m 81.25287,111.92998 q 0,-1.65823 0.82912,-3.31645 l 5.80377,-13.26577 q 0.82911,-2.48734 4.14556,-2.48734 1.16075,0 3.31644,0.82912 13.26578,6.63288 30.67711,6.63288 17.41133,0 30.6771,-6.63288 2.15569,-0.82912 3.31645,-0.82912 3.31644,0 4.14555,2.48734 l 5.80378,13.26577 q 0.82911,1.65822 0.82911,3.31645 0,2.9848 -3.31644,4.31137 -6.30125,2.65316 -9.28605,3.81391 -2.81897,1.32658 -12.43666,3.15063 -9.45187,1.98986 -19.73284,1.98986 -10.28098,0 -19.89867,-1.98986 -9.45186,-1.82405 -12.43666,-3.15063 -2.81898,-1.16075 -9.12022,-3.81391 -3.31645,-1.32657 -3.31645,-4.31137 z"
         style="font-style:normal;font-variant:normal;font-weight:normal;font-stretch:normal;font-family:'BoonTook Mon';-inkscape-font-specification:'BoonTook Mon';fill:#ffffff;fill-opacity:0.8"
         id="path4159"
         inkscape:connector-curvature="0" />
      <path
         d="m 971.00643,362.70936 0,86.22755 q 0,2.65315 -1.98987,4.64302 -1.82404,1.98986 -4.64302,1.98986 l -29.84799,0 q -2.81898,0 -4.80885,-1.98986 -1.82404,-1.98987 -1.82404,-4.64302 l 0,-10.28098 q -11.27591,18.57209 -33.16444,18.57209 -16.4164,0 -26.53155,-10.11516 -9.94933,-10.11515 -9.94933,-28.02395 l 0,-56.37955 q 0,-2.65315 1.82404,-4.64302 1.98987,-1.98986 4.80885,-1.98986 l 33.16443,0 q 2.81898,0 4.64303,1.98986 1.98986,1.98987 1.98986,4.64302 l 0,46.43022 q 0,7.29618 1.98987,10.28098 1.98987,2.98479 6.30124,2.98479 8.12529,0 11.60756,-11.11008 l 0,-48.58591 q 0,-2.65315 1.82404,-4.64302 1.98987,-1.98986 4.80884,-1.98986 l 33.16444,0 q 2.81898,0 4.64302,1.98986 1.98987,1.98987 1.98987,4.64302 z"
         style="font-style:normal;font-variant:normal;font-weight:normal;font-stretch:normal;font-family:'BoonTook Mon';-inkscape-font-specification:'BoonTook Mon';fill:#ffffff;fill-opacity:0.8"
         id="path4161"
         inkscape:connector-curvature="0" />
      <path
         d="m 924.70574,470.49379 q 0,-1.98987 1.4924,-3.48226 1.4924,-1.4924 3.48226,-1.4924 l 26.53156,0 q 4.4772,0 7.29617,2.65315 2.65316,2.81898 2.65316,7.29618 l 0,21.55688 q 0,1.98987 -1.4924,3.48227 -1.4924,1.4924 -3.48227,1.4924 l -23.21511,0 q -1.98986,0 -3.48226,-1.4924 -1.4924,-1.4924 -1.4924,-3.48227 l 0,-11.60755 -3.31645,0 q -1.98986,0 -3.48226,-1.4924 -1.4924,-1.4924 -1.4924,-3.48227 l 0,-9.94933 z"
         style="font-style:normal;font-variant:normal;font-weight:normal;font-stretch:normal;font-family:'BoonTook Mon';-inkscape-font-specification:'BoonTook Mon';fill:#ffffff;fill-opacity:0.8"
         id="path4163"
         inkscape:connector-curvature="0" />
      <path
         d="m 982.74351,371.82959 q 0,-2.9848 3.31644,-4.97467 0.99493,-0.49747 2.81898,-1.4924 1.98986,-0.99493 7.95946,-3.31644 6.13541,-2.48734 12.27081,-4.31138 6.3013,-1.98987 15.4215,-3.48227 9.1202,-1.4924 17.9088,-1.4924 27.1948,0 42.6163,10.61262 15.4215,10.61262 15.4215,30.84293 l 0,54.72133 q 0,2.65315 -1.9899,4.64302 -1.9899,1.98986 -4.643,1.98986 l -31.5062,0 q -2.6532,0 -4.6431,-1.98986 -1.9898,-1.98987 -1.9898,-4.64302 l 0,-54.72133 q 0,-6.13542 -3.1506,-8.78857 -2.9848,-2.81898 -10.1152,-2.81898 -3.9797,0 -9.6177,0.49746 6.3013,5.14049 6.3013,12.76831 l 0,53.06311 q 0,2.65315 -1.9899,4.64302 -1.9899,1.98986 -4.643,1.98986 l -31.5063,0 q -2.65311,0 -4.64297,-1.98986 -1.98987,-1.98987 -1.98987,-4.64302 l 0,-54.72133 q 0,-3.81391 -1.32658,-4.64302 -0.33164,0 -0.99493,0.16582 -0.66329,0.16582 -1.16076,0.33165 -0.49746,0 -0.66328,0 -2.15569,0 -3.31645,-3.31645 l -3.31644,-10.77844 q -0.82911,-2.81898 -0.82911,-4.14555 z"
         style="font-style:normal;font-variant:normal;font-weight:normal;font-stretch:normal;font-family:'BoonTook Mon';-inkscape-font-specification:'BoonTook Mon';fill:#ffffff;fill-opacity:0.8"
         id="path4165"
         inkscape:connector-curvature="0" />
      <path
         d="m 1110.6079,379.29158 0,-21.55688 q 0,-2.81898 2.1557,-2.81898 0.995,0 2.819,1.16076 l 13.2658,8.29111 q 9.9493,-9.94933 23.2151,-9.94933 10.6126,0 16.9139,6.13542 6.3012,6.13542 6.3012,15.42146 0,6.63289 -6.6329,20.72777 -6.6329,14.09489 -6.6329,22.386 0,9.94933 9.9494,9.94933 9.9493,0 9.9493,-9.94933 l 0,-24.87333 q 0,-8.9544 -3.3165,-9.94933 -2.4873,-0.66329 -2.4873,-3.31644 l 0,-9.94934 q 0,-1.98986 2.4873,-4.14555 7.6279,-6.30124 21.0595,-13.26578 13.5974,-7.13035 25.3708,-7.13035 1.9898,0 3.4822,1.4924 1.4924,1.4924 1.4924,3.48227 l 0,17.90879 q 0,1.98987 -1.4924,3.48227 -1.4924,1.4924 -3.4822,1.4924 -12.2709,0 -20.7278,3.81391 9.1202,1.82404 15.7531,8.45693 6.6329,6.63289 6.6329,14.26071 l 0,18.24044 q 0,20.06449 -14.4265,30.01382 -14.4266,9.78351 -40.2948,9.78351 -25.8683,0 -40.2948,-9.78351 -14.4266,-9.94933 -14.4266,-30.01382 0,-6.30124 3.3165,-11.77337 3.4822,-5.63796 7.462,-8.78858 3.9797,-3.15062 7.2962,-6.79871 3.4822,-3.64809 3.4822,-6.63289 0,-4.14555 -3.3164,-4.14555 -3.9798,0 -8.2911,5.80377 -1.6583,2.48734 -3.3165,2.48734 l -3.3164,-1.65823 -7.462,-4.14555 q -2.4874,-1.4924 -2.4874,-4.14556 z"
         style="font-style:normal;font-variant:normal;font-weight:normal;font-stretch:normal;font-family:'BoonTook Mon';-inkscape-font-specification:'BoonTook Mon';fill:#ffffff;fill-opacity:0.8"
         id="path4167"
         inkscape:connector-curvature="0" />
      <path
         d="m 1166.9871,319.59559 q 0,-6.96453 5.1405,-10.94426 5.1405,-3.97973 13.1,-3.97973 l 33.1644,0 q 1.9899,0 3.4823,1.4924 1.4924,1.4924 1.4924,3.48226 l 0,13.26578 q 0,1.98986 -1.4924,3.48226 -1.4924,1.4924 -3.4823,1.4924 l -20.7278,0 1.9899,4.97467 q 0.8291,1.82404 0.8291,2.48733 0,2.48734 -3.9797,2.48734 l -20.3961,0 q -3.1507,0 -5.9696,-4.97467 -3.1507,-5.63795 -3.1507,-13.26578 z"
         style="font-style:normal;font-variant:normal;font-weight:normal;font-stretch:normal;font-family:'BoonTook Mon';-inkscape-font-specification:'BoonTook Mon';fill:#ffffff;fill-opacity:0.8"
         id="path4169"
         inkscape:connector-curvature="0" />
    </g>
  </g>
</svg>
