<?xml version="1.0" encoding="UTF-8" standalone="no"?>
<!-- Created with Inkscape (http://www.inkscape.org/) -->

<svg
   xmlns:dc="http://purl.org/dc/elements/1.1/"
   xmlns:cc="http://creativecommons.org/ns#"
   xmlns:rdf="http://www.w3.org/1999/02/22-rdf-syntax-ns#"
   xmlns:svg="http://www.w3.org/2000/svg"
   xmlns="http://www.w3.org/2000/svg"
   xmlns:sodipodi="http://sodipodi.sourceforge.net/DTD/sodipodi-0.dtd"
   xmlns:inkscape="http://www.inkscape.org/namespaces/inkscape"
   width="256"
   height="256"
   viewBox="0 0 256 256"
   id="svg4168"
   version="1.1"
   inkscape:version="0.91 r13725"
   sodipodi:docname="boonux-logo-sq.svg"
   inkscape:export-filename="/home/i/Pictures/boonux-logo-sq.png"
   inkscape:export-xdpi="90"
   inkscape:export-ydpi="90">
  <defs
     id="defs4170" />
  <sodipodi:namedview
     id="base"
     pagecolor="#ffffff"
     bordercolor="#666666"
     borderopacity="1.0"
     inkscape:pageopacity="0.0"
     inkscape:pageshadow="2"
     inkscape:zoom="1.6142381"
     inkscape:cx="-149.22061"
     inkscape:cy="128"
     inkscape:document-units="px"
     inkscape:current-layer="layer1"
     showgrid="false"
     units="px"
     inkscape:showpageshadow="false"
     showborder="false"
     inkscape:window-width="2560"
     inkscape:window-height="1350"
     inkscape:window-x="0"
     inkscape:window-y="45"
     inkscape:window-maximized="1" />
  <metadata
     id="metadata4173">
    <rdf:RDF>
      <cc:Work
         rdf:about="">
        <dc:format>image/svg+xml</dc:format>
        <dc:type
           rdf:resource="http://purl.org/dc/dcmitype/StillImage" />
        <dc:title />
      </cc:Work>
    </rdf:RDF>
  </metadata>
  <g
     inkscape:label="Layer 1"
     inkscape:groupmode="layer"
     id="layer1"
     transform="translate(0,-796.36216)">
    <g
       style="font-style:normal;font-weight:normal;font-size:150px;line-height:125%;font-family:sans-serif;letter-spacing:0px;word-spacing:0px;fill:#dddddd;fill-opacity:0.66666669;stroke:none;stroke-width:1px;stroke-linecap:butt;stroke-linejoin:miter;stroke-opacity:1"
       id="text4735"
       transform="matrix(2.4380952,0,0,2.4380952,1323.5373,-496.36297)">
      <path
         d="m -542.85712,630.2193 0,-95 q 0,-2 1.5,-3.5 1.5,-1.5 3.5,-1.5 l 95,0 q 2,0 3.5,1.5 1.5,1.5 1.5,3.5 l 0,95 q 0,2 -1.5,3.5 -1.5,1.5 -3.5,1.5 l -16,0 0,-52.5 q 0,-13.25 -9.125,-22.375 -9.125,-9.125 -22.375,-9.125 -13.25,0 -22.375,9.125 -9.125,9.125 -9.125,22.375 0,13.25 9.125,22.375 9.125,9.125 22.375,9.125 3.125,0 6.5,-0.625 l 0,21.625 -54,0 q -2,0 -3.5,-1.5 -1.5,-1.5 -1.5,-3.5 z m 43.125,-38.125 q -3.75,-3.875 -3.75,-9.375 0,-5.5 3.75,-9.25 3.875,-3.875 9.375,-3.875 5.5,0 9.25,3.875 3.875,3.75 3.875,9.25 0,5.5 -3.875,9.375 -3.75,3.75 -9.25,3.75 -5.5,0 -9.375,-3.75 z"
         style="font-style:normal;font-variant:normal;font-weight:normal;font-stretch:normal;font-family:'BoonTook Mon';-inkscape-font-specification:'BoonTook Mon';fill:#dddddd;fill-opacity:0.66666669"
         id="path4740"
         inkscape:connector-curvature="0" />
    </g>
  </g>
</svg>
